# xmcd
#
# Track frame offsets:
#	150
#	7714
#	29737
#	48335
#	73592
#	89499
#	112305
#	128218
#	147075
#
# Disc length: 2205 seconds
#
# Revision: 1
# Processed by: cddbd v1.5.2PL0 Copyright (c) Steve Scherf et al.
# Submitted via: audiograbber 1.83.01
#
DISCID=7c089b09
DTITLE=Carnophage - Monument
DYEAR=2016
DGENRE=Death Metal
TTITLE0=Incandescent
TTITLE1=Second Genesis
TTITLE2=Resistance Against Mind Clouding Heresy
TTITLE3=Same Old Circle
TTITLE4=Unbroken Fortitude
TTITLE5=The Backside of Our Civilization
TTITLE6=Ode to Corruption
TTITLE7=Sparks of the Experiment
TTITLE8=Inertia and Failure
EXTD=
EXTT0=
EXTT1=
EXTT2=
EXTT3=
EXTT4=
EXTT5=
EXTT6=
EXTT7=
EXTT8=
PLAYORDER=
